<?xml version="1.0" encoding="utf-8"?>
<!-- Generator: Adobe Illustrator 26.3.1, SVG Export Plug-In . SVG Version: 6.00 Build 0)  -->
<svg version="1.1" id="Capa_1" xmlns="http://www.w3.org/2000/svg" xmlns:xlink="http://www.w3.org/1999/xlink" x="0px" y="0px"
	 viewBox="0 0 562.72 342.72" style="enable-background:new 0 0 562.72 342.72;" xml:space="preserve">
<style type="text/css">
	.st0{fill:#FFFFFF;}
</style>
<g>
	<g>
		<path class="st0" d="M233.99,114.25c0-0.47,0.08-1.17,0.23-2.11c0.15-0.94,0.23-1.8,0.23-2.58c0-0.78-0.16-1.56-0.47-2.35
			c-4.38,1.41-17.3,4.46-38.74,9.16c-1.1,0.32-2.23,0.59-3.4,0.82s-2.51,0.51-3.99,0.82c-1.49,0.32-2.7,0.55-3.64,0.7
			c-2.51,0.63-4.11,1.37-4.81,2.23c-0.7,0.86-0.98,2.62-0.82,5.28c0.31,7.2,0.23,12.6-0.23,16.2c-0.16,0.78-0.08,2.31,0.23,4.58
			c0.31,2.27,0.15,3.79-0.47,4.58c-2.04,5.63-4.78,8.29-8.22,7.98c-2.04-0.32-3.76-1.33-5.17-3.05c-1.41-1.72-2.19-3.91-2.35-6.57
			c-0.16-0.63-0.27-2.11-0.35-4.46c-0.08-2.35-0.16-4.03-0.23-5.05c-0.08-1.02-0.16-2.47-0.23-4.34c-0.08-1.88-0.04-3.56,0.12-5.05
			c0.15-1.49,0.31-3.01,0.47-4.58c0.31-1.56,0.23-2.62-0.23-3.17c-0.47-0.55-1.57-0.59-3.29-0.12c-4.38,1.57-7.75,0.79-10.09-2.35
			c-2.82-3.44-2.42-7.04,1.17-10.8c2.19-2.19,6.34-3.99,12.44-5.4c1.25-0.15,2.11-0.55,2.58-1.17c0.47-0.62,0.78-1.64,0.94-3.05
			c0.47-3.6,1.72-8.53,3.76-14.79c2.35-7.04,4.54-12.99,6.57-17.84c1.25-2.97,4.15-8.92,8.69-17.84
			c5.01-9.86,10.09-18.39,15.26-25.59c5.16-7.04,10.64-13.3,16.43-18.78c2.82-2.82,6.1-4.58,9.86-5.28c3.76-0.7,7.47-0.04,11.15,2
			c3.68,2.04,6.53,5.48,8.57,10.33c2.03,5.17,3.6,13.46,4.7,24.88c1.09,12.83,1.64,27.16,1.64,42.96c0,2.51,1.02,3.21,3.05,2.11
			c2.82-1.41,5.79-2.19,8.92-2.35c3.91-0.15,6.57,1.1,7.98,3.76c1.25,2.19,0.55,4.7-2.11,7.51c-4.7,5.01-9.78,8.22-15.26,9.63
			c-1.57,0.47-2.35,1.57-2.35,3.29c0.15,6.1,0.23,12.6,0.23,19.49c0,6.89,0.04,14.32,0.12,22.3c0.08,7.98,0.12,14.47,0.12,19.49
			c0,0.78,0.12,2.03,0.35,3.76c0.23,1.72,0.27,3.05,0.12,3.99c0,5.79-3.13,8.92-9.39,9.39c-1.57,0.15-3.29-0.7-5.16-2.58
			c-1.88-1.88-2.98-3.99-3.29-6.34c-0.63-3.6-1.02-13.15-1.17-28.64c0-2.97-0.04-7.94-0.12-14.91
			C234.26,123.37,234.14,118.01,233.99,114.25z M234.23,86.08c0-3.13,0-14.09,0-32.87c-0.32-2.97-0.79-7.24-1.41-12.79
			c-0.63-5.55-1.02-9.19-1.17-10.92c-0.47-3.6-1.25-6.73-2.35-9.39c-0.63-1.56-1.57-1.88-2.82-0.94c-0.16,0.16-0.63,0.51-1.41,1.06
			c-0.79,0.55-1.33,1.06-1.64,1.53c-6.26,6.57-12.13,14.48-17.61,23.71c-7.98,13.46-13.38,24.5-16.2,33.1
			c-0.32,1.25-1.25,3.95-2.82,8.1c-1.57,4.15-2.58,7.4-3.05,9.74c-0.47,2.19-0.59,3.44-0.35,3.76c0.23,0.32,1.37,0.23,3.4-0.23
			c15.65-2.82,30.36-6.1,44.14-9.86C233.13,89.44,234.23,88.11,234.23,86.08z"/>
		<path class="st0" d="M343.39,130.45c0,1.1,0.12,2.9,0.35,5.4c0.23,2.51,0.35,4.3,0.35,5.4c0,1.09-0.08,2.89-0.23,5.4
			c-0.78,4.38-3.13,6.89-7.04,7.51c-2.04,0.15-3.91-0.27-5.63-1.29c-1.72-1.02-3.05-2.55-3.99-4.58c-0.94-1.72-1.41-4.07-1.41-7.04
			c-0.94-26.92-1.57-43.43-1.88-49.54c-0.16-1.25-0.23-2.78-0.23-4.58c0-1.8,0-3.36,0-4.69c0-1.33-0.08-2.89-0.23-4.7
			c-0.16-1.8-0.47-3.48-0.94-5.05c-6.1,9.55-9.39,14.71-9.86,15.49c-1.57,2.51-4.23,6.81-7.98,12.91c-3.76,6.1-6.65,10.8-8.69,14.09
			c-0.94,1.41-2.11,2.58-3.52,3.52c-1.41,0.94-2.86,1.57-4.34,1.88c-1.49,0.32-3.02,0.32-4.58,0c-2.35-0.62-4.27-1.96-5.75-3.99
			c-1.49-2.03-2.31-4.46-2.47-7.28c-0.78-12.99-0.39-28.64,1.17-46.95c0.15-1.72,0.35-4.34,0.59-7.86c0.23-3.52,0.43-6.14,0.59-7.86
			c0.15-2.03,1.09-3.99,2.82-5.87c1.72-1.88,3.6-2.97,5.63-3.29c3.6-0.47,6.42,1.02,8.45,4.46c0.62,0.79,1.02,1.76,1.17,2.93
			c0.15,1.17,0.23,2.11,0.23,2.82s-0.12,1.84-0.35,3.4c-0.23,1.57-0.35,2.51-0.35,2.82c-0.94,11.58-1.49,22.07-1.64,31.46
			c0.94,0.32,1.72-0.08,2.35-1.17c1.09-2.5,2.42-5.01,3.99-7.51c1.56-2.5,3.44-5.36,5.63-8.57c2.19-3.21,3.83-5.59,4.93-7.16
			c3.44-5.32,6.73-9.16,9.86-11.5c2.82-2.03,6.02-2.54,9.63-1.53c3.6,1.02,6.1,3.17,7.51,6.46c2.19,4.54,3.44,11.27,3.76,20.19
			c0.31,5.16,0.59,11.11,0.82,17.84c0.23,6.73,0.43,13.42,0.59,20.07C342.84,119.14,343.07,125.13,343.39,130.45z"/>
		<path class="st0" d="M425.32,145.71c0.31,1.72,0.08,3.44-0.7,5.16c-0.79,1.72-2,3.01-3.64,3.87c-1.64,0.86-3.37,1.09-5.16,0.7
			c-1.8-0.39-3.25-1.21-4.34-2.47c-2.51-3.13-4.15-6.89-4.93-11.27c-0.94-5.01-3.37-16.75-7.28-35.21
			c-0.32-0.94-0.59-2.38-0.82-4.34c-0.23-1.96-0.55-3.79-0.94-5.52c-0.39-1.72-0.9-3.36-1.53-4.93c-1.72,3.6-4.54,8.14-8.45,13.62
			c-3.91,5.48-6.34,9.08-7.28,10.8c-2.51,4.07-5.99,6.54-10.45,7.4c-4.46,0.86-8.33-0.12-11.62-2.93c-1.72-1.41-2.98-3.6-3.76-6.57
			c-1.72-6.57-1.33-14.63,1.17-24.18c3.76-13.3,10.33-24.8,19.72-34.51c7.04-7.35,14.79-9.08,23.24-5.17
			c4.23,1.88,6.49,6.34,6.81,13.38c0.15,1.72,0.74,3.21,1.76,4.46c1.02,1.25,1.84,2.58,2.47,3.99c0.62,1.41,1.25,3.4,1.88,5.99
			c0.62,2.58,1.02,4.11,1.17,4.58c1.09,4.07,2.23,10.06,3.4,17.96c1.17,7.9,2.23,13.66,3.17,17.25c1.56,5.95,2.66,11.5,3.29,16.67
			C422.65,135.38,423.59,139.13,425.32,145.71z M373.67,94.53c7.04-10.48,11.5-18.62,13.38-24.42c-2.98,2.35-5.87,6.1-8.69,11.27
			C375.55,86.55,373.98,90.93,373.67,94.53z"/>
	</g>
	<g>
		<g>
			<path class="st0" d="M87.31,274.15c0-0.47,0.08-1.17,0.23-2.11c0.15-0.94,0.23-1.8,0.23-2.58c0-0.78-0.16-1.56-0.47-2.35
				c-4.38,1.41-17.3,4.46-38.74,9.16c-1.1,0.32-2.23,0.59-3.4,0.82s-2.51,0.51-3.99,0.82c-1.49,0.32-2.7,0.55-3.64,0.7
				c-2.51,0.63-4.11,1.37-4.81,2.23c-0.7,0.86-0.98,2.62-0.82,5.28c0.31,7.2,0.23,12.6-0.23,16.2c-0.16,0.78-0.08,2.31,0.23,4.58
				c0.31,2.27,0.15,3.79-0.47,4.58c-2.04,5.63-4.78,8.29-8.22,7.98c-2.04-0.32-3.76-1.33-5.17-3.05c-1.41-1.72-2.19-3.91-2.35-6.57
				c-0.16-0.63-0.27-2.11-0.35-4.46c-0.08-2.35-0.16-4.03-0.23-5.05c-0.08-1.02-0.16-2.47-0.23-4.34c-0.08-1.88-0.04-3.56,0.12-5.05
				c0.15-1.49,0.31-3.01,0.47-4.58c0.31-1.56,0.23-2.62-0.23-3.17c-0.47-0.55-1.57-0.59-3.29-0.12c-4.38,1.57-7.75,0.79-10.09-2.35
				c-2.82-3.44-2.42-7.04,1.17-10.8c2.19-2.19,6.34-3.99,12.44-5.4c1.25-0.15,2.11-0.55,2.58-1.17c0.47-0.62,0.78-1.64,0.94-3.05
				c0.47-3.6,1.72-8.53,3.76-14.79c2.35-7.04,4.54-12.99,6.57-17.84c1.25-2.97,4.15-8.92,8.69-17.84
				c5.01-9.86,10.09-18.39,15.26-25.59c5.16-7.04,10.64-13.3,16.43-18.78c2.82-2.82,6.1-4.58,9.86-5.28c3.76-0.7,7.47-0.04,11.15,2
				c3.68,2.04,6.53,5.48,8.57,10.33c2.03,5.17,3.6,13.46,4.7,24.88c1.09,12.83,1.64,27.16,1.64,42.96c0,2.51,1.02,3.21,3.05,2.11
				c2.82-1.41,5.79-2.19,8.92-2.35c3.91-0.15,6.57,1.1,7.98,3.76c1.25,2.19,0.55,4.7-2.11,7.51c-4.7,5.01-9.78,8.22-15.26,9.63
				c-1.57,0.47-2.35,1.57-2.35,3.29c0.15,6.1,0.23,12.6,0.23,19.49c0,6.89,0.04,14.32,0.12,22.3c0.08,7.98,0.12,14.47,0.12,19.49
				c0,0.78,0.12,2.03,0.35,3.76c0.23,1.72,0.27,3.05,0.12,3.99c0,5.79-3.13,8.92-9.39,9.39c-1.57,0.15-3.29-0.7-5.16-2.58
				c-1.88-1.88-2.98-3.99-3.29-6.34c-0.63-3.6-1.02-13.15-1.17-28.64c0-2.97-0.04-7.94-0.12-14.91
				C87.58,283.27,87.46,277.91,87.31,274.15z M87.54,245.98c0-3.13,0-14.09,0-32.87c-0.32-2.97-0.79-7.24-1.41-12.79
				c-0.63-5.55-1.02-9.19-1.17-10.92c-0.47-3.6-1.25-6.73-2.35-9.39c-0.63-1.56-1.57-1.88-2.82-0.94c-0.16,0.16-0.63,0.51-1.41,1.06
				c-0.79,0.55-1.33,1.06-1.64,1.53c-6.26,6.57-12.13,14.48-17.61,23.71c-7.98,13.46-13.38,24.5-16.2,33.1
				c-0.32,1.25-1.25,3.95-2.82,8.1c-1.57,4.15-2.58,7.4-3.05,9.74c-0.47,2.19-0.59,3.44-0.35,3.76c0.23,0.32,1.37,0.23,3.4-0.23
				c15.65-2.82,30.36-6.1,44.14-9.86C86.45,249.34,87.54,248.01,87.54,245.98z"/>
			<path class="st0" d="M150.46,183.3c-0.16,2.51-0.23,5.48-0.23,8.92c0,3.44-0.04,6.77-0.12,9.98c-0.08,3.21-0.27,6.14-0.59,8.8
				c-0.47,4.7-0.7,11.27-0.7,19.72c0,8.45,0,13.85,0,16.2c-0.16,2.51-0.04,6.26,0.35,11.27c0.39,5.01,0.59,8.77,0.59,11.27
				c-0.16,2.51-0.16,5.67,0,9.51c0.15,3.84,0.27,7.04,0.35,9.63c0.08,2.58,0.04,5.83-0.12,9.74c-0.32,4.38-2.11,7.04-5.4,7.98
				c-3.76,1.25-6.97-0.32-9.63-4.7c-0.79-1.41-1.33-2.93-1.64-4.58c-0.32-1.64-0.47-3.36-0.47-5.17c0-1.8-0.08-3.01-0.23-3.64
				c-0.79-21.6-1.1-43.59-0.94-65.97c0-2.5,0.08-5.24,0.23-8.22c0.15-2.97,0.31-6.22,0.47-9.74c0.15-3.52,0.31-6.22,0.47-8.1
				c0-0.78,0.04-3.21,0.12-7.28c0.08-4.07,0.27-7.2,0.59-9.39c0-1.09,0.23-9.39,0.7-24.88c0-1.88,0.86-3.68,2.58-5.4
				c1.72-1.72,3.52-2.58,5.4-2.58c1.88,0,3.6,0.78,5.16,2.35c1.56,1.57,2.58,3.52,3.05,5.87c0.31,1.72,0.55,3.52,0.7,5.4
				c0.15,1.88,0.19,3.91,0.12,6.1c-0.08,2.19-0.12,3.95-0.12,5.28c0,1.33-0.12,3.37-0.35,6.1
				C150.57,180.52,150.46,182.36,150.46,183.3z"/>
			<path class="st0" d="M236.14,209.59c1.09,1.1,1.72,2.74,1.88,4.93c0.15,2.19-0.32,3.99-1.41,5.4
				c-4.54,6.1-9.39,14.09-14.56,23.95c-5.95,11.43-10.65,21.36-14.09,29.81c-2.35,5.63-4.93,11.35-7.75,17.14
				c-0.63,1.41-1.29,3.6-2,6.57s-1.45,5.24-2.23,6.81c-1.1,2.03-2.93,3.79-5.52,5.28c-2.58,1.49-4.81,2-6.69,1.53
				c-4.07-0.63-6.73-3.29-7.98-7.98c-4.23-13.93-9-35.06-14.32-63.39c-0.16-0.94-0.63-3.09-1.41-6.46
				c-0.79-3.36-1.33-5.99-1.64-7.86c-0.62-5.48,0.47-9.47,3.29-11.97c2.19-1.88,4.73-2.46,7.63-1.76c2.89,0.7,4.61,2.43,5.17,5.17
				c0.55,2.74,1.13,5.63,1.76,8.69c0.62,3.05,1.29,6.42,2,10.09c0.7,3.68,1.21,6.54,1.53,8.57c2.66,13.15,5.08,23.79,7.28,31.93
				c2.5-2.66,4.93-7.2,7.28-13.62c1.41-3.91,3.91-9.23,7.51-15.96c3.6-6.73,5.71-10.72,6.34-11.97c2.35-5.01,6.49-11.66,12.44-19.96
				c1.41-1.88,3.44-3.68,6.1-5.4C230.35,206.77,233.48,206.93,236.14,209.59z"/>
			<path class="st0" d="M307.51,305.61c0.31,1.72,0.08,3.44-0.7,5.16c-0.79,1.72-2,3.01-3.64,3.87c-1.64,0.86-3.37,1.09-5.16,0.7
				c-1.8-0.39-3.25-1.21-4.34-2.47c-2.51-3.13-4.15-6.89-4.93-11.27c-0.94-5.01-3.37-16.75-7.28-35.21
				c-0.32-0.94-0.59-2.38-0.82-4.34c-0.23-1.96-0.55-3.79-0.94-5.52c-0.39-1.72-0.9-3.36-1.53-4.93c-1.72,3.6-4.54,8.14-8.45,13.62
				c-3.91,5.48-6.34,9.08-7.28,10.8c-2.51,4.07-5.99,6.54-10.45,7.4c-4.46,0.86-8.33-0.12-11.62-2.93c-1.72-1.41-2.98-3.6-3.76-6.57
				c-1.72-6.57-1.33-14.63,1.17-24.18c3.76-13.3,10.33-24.8,19.72-34.51c7.04-7.35,14.79-9.08,23.24-5.17
				c4.23,1.88,6.49,6.34,6.81,13.38c0.15,1.72,0.74,3.21,1.76,4.46c1.02,1.25,1.84,2.58,2.47,3.99c0.62,1.41,1.25,3.4,1.88,5.99
				c0.62,2.58,1.02,4.11,1.17,4.58c1.09,4.07,2.23,10.06,3.4,17.96c1.17,7.9,2.23,13.66,3.17,17.25c1.56,5.95,2.66,11.5,3.29,16.67
				C304.85,295.28,305.79,299.03,307.51,305.61z M255.86,254.43c7.04-10.48,11.5-18.62,13.38-24.42c-2.98,2.35-5.87,6.1-8.69,11.27
				C257.74,246.45,256.18,250.83,255.86,254.43z"/>
			<path class="st0" d="M379.81,224.14c3.29,4.54,3.05,8.45-0.7,11.74c-1.41,1.25-3.56,1.76-6.46,1.53c-2.9-0.23-5.05-1.13-6.46-2.7
				c-0.47-0.31-2.66-2.89-6.57-7.75c-1.25-1.56-2.35-1.41-3.29,0.47c-1.1,2.66-3.29,6.97-6.57,12.91
				c-3.29,5.95-5.56,10.65-6.81,14.09c-0.63,1.88-1.57,4.07-2.82,6.57c-1.25,2.51-2.39,4.93-3.4,7.28
				c-1.02,2.35-1.84,4.54-2.46,6.57c-0.94,3.6-3.21,6.5-6.81,8.69c-2.97,1.57-5.99,1.68-9.04,0.35c-3.05-1.33-4.97-3.64-5.75-6.93
				c-0.47-2.03-0.82-4.34-1.06-6.93c-0.23-2.58-0.39-4.58-0.47-5.99c-0.08-1.41-0.16-3.83-0.23-7.28c-0.08-3.44-0.12-5.55-0.12-6.34
				c0-2.5,0.15-6.42,0.47-11.74c0-2.82,1.02-5.52,3.05-8.1c2.03-2.58,4.38-3.17,7.04-1.76c5.48,2.66,8.06,6.1,7.75,10.33
				c0,0.16,0.15,1.41,0.47,3.76c1.25-1.88,2.47-3.83,3.64-5.87c1.17-2.03,2.5-4.73,3.99-8.1c1.49-3.36,2.46-5.44,2.93-6.22
				c1.56-3.29,4.38-7.59,8.45-12.91c2.19-2.82,5.05-4.3,8.57-4.46c3.52-0.15,6.69,1.02,9.51,3.52
				C370.89,212.64,375.27,217.73,379.81,224.14z"/>
			<path class="st0" d="M406.81,262.41c-0.16,0-0.47-0.12-0.94-0.35c-0.47-0.23-0.86-0.31-1.17-0.23c-0.32,0.08-0.55,0.28-0.7,0.59
				c-0.47,1.1-0.23,2.35,0.7,3.76c2.82,3.91,6.96,6.65,12.44,8.22c0.47,0.16,1.33,0.39,2.58,0.7c1.25,0.32,2.23,0.55,2.93,0.7
				c0.7,0.16,1.49,0.55,2.35,1.17c0.86,0.63,1.6,1.33,2.23,2.11c1.09,1.57,1.84,3.37,2.23,5.4c0.39,2.04,0.27,3.76-0.35,5.17
				c-1.88,2.97-4.78,4.15-8.69,3.52c-11.74-1.56-20.74-5.95-27-13.15c-5.32-6.42-7.83-16.35-7.51-29.81c0-0.78,0.12-2.42,0.35-4.93
				c0.23-2.5,0.35-4.58,0.35-6.22c0-1.64-0.16-3.95-0.47-6.93c-0.32-1.72-0.12-3.36,0.59-4.93c0.7-1.56,1.72-2.89,3.05-3.99
				c1.33-1.09,2.85-1.8,4.58-2.11c2.03-0.62,3.68-1.72,4.93-3.29c4.38-5.32,10.95-8.61,19.72-9.86c4.54-0.78,9.08,0.63,13.62,4.23
				c4.54,3.6,7.43,7.83,8.69,12.68c1.56,5.79,0.74,11.82-2.47,18.08c-3.21,6.26-7.83,11.23-13.85,14.91
				C418.98,261.51,412.91,263.04,406.81,262.41z M406.11,237.76c-1.1,1.88-1.29,3.4-0.59,4.58c0.7,1.17,2.23,1.76,4.58,1.76
				c2.19,0.16,4.61-0.9,7.28-3.17c2.66-2.27,4.61-4.89,5.87-7.86c1.09-2.66,0.7-4.85-1.17-6.57c-1.57-1.41-3.76-1.56-6.57-0.47
				c-1.25,0.47-2.43,1.21-3.52,2.23c-1.1,1.02-1.88,1.92-2.35,2.7c-0.47,0.79-1.1,2-1.88,3.64
				C406.96,236.24,406.42,237.29,406.11,237.76z"/>
			<path class="st0" d="M557.76,262.41c2.35,1.1,3.87,2.62,4.58,4.58c0.7,1.96,0.43,4.11-0.82,6.46c-2.35,3.76-6.97,6.57-13.85,8.45
				c-13.77,3.76-29.03,6.81-45.78,9.16c-1.72,0.32-4.5,0.79-8.33,1.41c-3.84,0.63-7.16,1.14-9.98,1.53
				c-2.82,0.39-5.56,0.59-8.22,0.59c-2.82,0.47-5.99,0.51-9.51,0.12c-3.52-0.39-6.54-1.53-9.04-3.4c-5.01-4.07-6.34-8.84-3.99-14.32
				c1.88-4.7,4.54-8.61,7.98-11.74c4.38-4.23,10.56-10.09,18.55-17.61c7.98-7.51,13.07-12.36,15.26-14.56
				c0.15,0,1.02-1.02,2.58-3.05c-11.11,0.94-19.02,1.8-23.71,2.58c-7.67,1.25-12.68,2.43-15.02,3.52c-1.1,0.63-2.9,0.43-5.4-0.59
				c-2.51-1.02-4.07-2.07-4.7-3.17c-0.94-1.25-1.21-3.01-0.82-5.28c0.39-2.27,1.13-4.03,2.23-5.28c1.88-2.19,4.07-3.72,6.57-4.58
				c2.5-0.86,5.79-1.53,9.86-2c11.27-1.72,20.5-2.82,27.7-3.29c3.6-0.62,7.71-0.78,12.33-0.47c4.61,0.32,8.49,1.64,11.62,3.99
				c1.88,1.41,3.13,3.4,3.76,5.99c0.62,2.58,0.47,4.97-0.47,7.16c-1.88,3.91-5.56,8.53-11.03,13.85
				c-4.23,3.91-10.37,9.71-18.43,17.37c-8.06,7.67-12.56,11.97-13.5,12.91c-0.16,0-1.1,1.1-2.82,3.29c0.31,0.32,0.47,0.55,0.47,0.7
				c17.84-2.82,27.31-4.3,28.41-4.46c18.15-2.97,33.73-6.34,46.72-10.09C553.3,261.55,555.57,261.63,557.76,262.41z"/>
		</g>
	</g>
	<g>
		<path class="st0" d="M83.37,135.38c7.5-11.64,12.79-24.69,15.51-38.26"/>
		<path class="st0" d="M87.73,137.92c7.69-12.02,13.17-25.48,16.02-39.47c0.54-2.67-0.77-5.45-3.52-6.21
			c-2.49-0.69-5.66,0.84-6.21,3.52c-2.69,13.22-7.73,25.69-15,37.05c-1.47,2.3-0.47,5.57,1.81,6.9
			C83.26,141.16,86.25,140.23,87.73,137.92L87.73,137.92z"/>
	</g>
</g>
</svg>
